<?xml version="1.0" standalone="no"?><!DOCTYPE svg PUBLIC "-//W3C//DTD SVG 1.1//EN" "http://www.w3.org/Graphics/SVG/1.1/DTD/svg11.dtd"><svg t="1765184547844" class="icon" viewBox="0 0 1024 1024" version="1.1" xmlns="http://www.w3.org/2000/svg" p-id="32818" xmlns:xlink="http://www.w3.org/1999/xlink" width="200" height="200"><path d="M433.9 609.8H590v33.6H433.9z" p-id="32819" fill="#2c7d30"></path><path d="M726.9 335.3c-113.1-3.1-186.5-56.4-208.2-74.4-2-1.7-4.4-2.5-6.7-2.5-2.4 0-4.8 0.8-6.7 2.5-21.7 18-94.9 71.5-208.2 74.4-5.7 0.1-10.4 4.6-10.4 10.4v212.6c0 95.1 142.8 207.2 225.3 207.2 80.3 0 225.3-112.2 225.3-207.2V345.8c-0.1-5.7-4.7-10.3-10.4-10.5z m-31.7 223.2c0 71-125.8 165.2-183.3 165.2-29.2 0-76.8-23.8-116.1-57.8-41.5-36.1-67.3-77.2-67.3-107.7V375.3c86.3-8.7 148.5-42.5 183.3-66.9 34.7 24.4 97 58.2 183.3 66.9v183.2z" p-id="32820" fill="#2c7d30"></path><path d="M507.8 374.8l-30.9 62.7-69.1 9.9c-3.9 0.6-5.4 5.3-2.6 8l50.1 48.8-11.8 68.9c-0.6 3.1 2 5.6 4.5 5.6 0.7 0 1.4-0.1 2.2-0.6l61.8-32.5 61.8 32.5c0.7 0.4 1.4 0.6 2.2 0.6 2.7 0 5.2-2.4 4.5-5.6l-11.8-68.9 50.1-48.8c2.7-2.6 1.3-7.4-2.6-8l-69.1-9.9-30.8-62.7c-0.8-1.8-2.5-2.6-4.2-2.6-2 0-3.5 0.8-4.3 2.6z m9.1 77.6l7.8 15.8 17.5 2.5 11.3 1.7-8.1 8-12.6 12.3 3.1 17.5 2 11.3-9.9-5.3-15.7-8.1-15.7 8.1-9.9 5.3 2-11.3 3.1-17.3-12.8-12.3-8.1-8 11.3-1.7 17.5-2.5 7.8-15.8 4.9-10.1 4.5 9.9z" p-id="32821" fill="#2c7d30"></path><path d="M512 64.5C264.9 64.5 64.5 264.9 64.5 512S264.9 959.5 512 959.5 959.5 759.1 959.5 512 759.2 64.5 512 64.5z m0 868.2C279.7 932.7 91.3 744.4 91.3 512S279.6 91.3 512 91.3c232.3 0 420.7 188.3 420.7 420.7S744.4 932.7 512 932.7z" p-id="32822" fill="#2c7d30"></path></svg>