<?xml version="1.0" standalone="no"?><!DOCTYPE svg PUBLIC "-//W3C//DTD SVG 1.1//EN" "http://www.w3.org/Graphics/SVG/1.1/DTD/svg11.dtd"><svg t="1765183657759" class="icon" viewBox="0 0 1024 1024" version="1.1" xmlns="http://www.w3.org/2000/svg" p-id="18309" xmlns:xlink="http://www.w3.org/1999/xlink" width="200" height="200"><path d="M272 48.16m24 0l0 0q24 0 24 24l0 128q0 24-24 24l0 0q-24 0-24-24l0-128q0-24 24-24Z" fill="#2c7d30" p-id="18310"></path><path d="M704 48.16m24 0l0 0q24 0 24 24l0 128q0 24-24 24l0 0q-24 0-24-24l0-128q0-24 24-24Z" fill="#2c7d30" p-id="18311"></path><path d="M80 304.16m24 0l800 0q24 0 24 24l0 0q0 24-24 24l-800 0q-24 0-24-24l0 0q0-24 24-24Z" fill="#2c7d30" p-id="18312"></path><path d="M530.56 507.84c-72.96 44.32-60.48 134.72-60.48 134.72A106.72 106.72 0 0 0 432 714.24a28.64 28.64 0 0 0 19.36 11.2 252.8 252.8 0 0 1 1.92-30.88c2.56-19.04 8.16-40.64 20.64-45.6a259.84 259.84 0 0 0 27.04 1.28c32 0 84-5.12 113.76-32 43.68-40.32 72.16-136 73.76-141.92l-4.8 4.32 4.8-4.32s-103.36-1.6-157.92 31.52z" fill="#2c7d30" p-id="18313"></path><path d="M353.6 496c72.96 44.32 60.64 134.72 60.64 134.72a106.72 106.72 0 0 1 37.6 71.52 28.16 28.16 0 0 1-19.2 11.2 297.44 297.44 0 0 0-1.92-30.88c-2.56-19.04-8.16-40.64-20.8-45.6a254.4 254.4 0 0 1-26.88 1.28c-32 0-84-5.12-113.76-32.8-43.68-40.32-72.16-136.16-73.76-142.08l4.8 4.48-4.8-4.48S299.2 464 353.6 496z" fill="#2c7d30" p-id="18314"></path><path d="M950.72 593.92l-88.48-88.48a30.88 30.88 0 0 0-43.68 0L752 571.52 558.08 765.28a34.4 34.4 0 0 0-8 13.28L515.52 896l-2.24 7.84a32 32 0 0 0 22.72 39.04 27.68 27.68 0 0 0 8 1.12 33.6 33.6 0 0 0 8.96-1.28l125.28-36.96a27.04 27.04 0 0 0 13.28-8l1.76-1.76L720 870.4l20.48-22.4 11.52-11.52 48-48 128-128 22.08-22.24a31.04 31.04 0 0 0 1.28-43.84zM668.64 876L600 896 544 912l4.96-16 32-108.8L608 759.84 696.32 848zM800 744.96l-81.44 81.44-88.64-88.64 166.08-166.08 4 4.32 84.48 84.64z m106.56-106.72l-88.48-88.64L840.16 528 928 616z" fill="#2c7d30" p-id="18315"></path><path d="M896 112H128a64 64 0 0 0-64 64v704a64 64 0 0 0 64 64h328a23.68 23.68 0 0 0 22.24-16 22.56 22.56 0 0 0 1.76-8.64A24 24 0 0 0 456 896a6.56 6.56 0 0 0-2.56 0H144a32 32 0 0 1-32-32V192a32 32 0 0 1 32-32h736a32 32 0 0 1 32 32v249.12A23.68 23.68 0 0 0 936 464a24.16 24.16 0 0 0 17.28-7.36 23.68 23.68 0 0 0 6.72-16V176a64 64 0 0 0-64-64z" fill="#2c7d30" p-id="18316"></path></svg>