<?xml version="1.0" standalone="no"?><!DOCTYPE svg PUBLIC "-//W3C//DTD SVG 1.1//EN" "http://www.w3.org/Graphics/SVG/1.1/DTD/svg11.dtd"><svg t="1765184374598" class="icon" viewBox="0 0 1024 1024" version="1.1" xmlns="http://www.w3.org/2000/svg" p-id="31743" xmlns:xlink="http://www.w3.org/1999/xlink" width="200" height="200"><path d="M825.81 585.12c-37.35 145.2-168.06 253.16-324.92 253.16-134.45 0-253.96-81.91-302.51-197.32v-3.72c-3.74-7.44-7.47-22.34-3.74-37.23 3.74-11.17 7.47-18.62 14.94-26.06l3.73-3.72c3.74-3.72 7.47-3.72 11.21-7.45 0 0 3.74 0 3.74-3.72 37.35-14.89 89.63-18.62 156.86-7.44 37.35 7.44 97.1 29.78 149.38 48.4 22.41 7.45 201.67 67.01 302.51-85.63 0-0.01 0 40.94-11.2 70.73z" p-id="31744" fill="#2d7d31"></path><path d="M600.99 387.8h29.88l3.73-67.01h-37.34zM388.12 387.8H418l3.73-67.01h-37.35z" p-id="31745" fill="#2d7d31"></path><path d="M817.6 372.91s-7.47-48.4-37.35-74.46H731.7c-52.29-67.01-134.45-111.69-227.82-111.69s-175.53 44.68-227.82 111.69h-52.28c-29.88 26.06-37.35 74.46-37.35 74.46l7.47 7.44 29.88 37.23c-3.74 18.61-7.47 40.95-7.47 63.29v22.34c14.94-3.72 89.63-26.06 183-11.17 52.29 7.44 149.39 55.84 212.88 59.57 104.57 7.44 164.32-63.29 175.53-81.91 0-18.62-3.74-37.23-7.47-55.85l29.88-33.51 7.47-7.43zM511.36 436.2c-67.23 0-224.08 29.79-197.94-74.46 29.88-130.3 194.21-126.58 197.94-126.58 0 0 164.32-3.72 197.94 126.58 26.14 104.24-130.71 74.46-197.94 74.46z" p-id="31746" fill="#2d7d31"></path></svg>