<?xml version="1.0" standalone="no"?><!DOCTYPE svg PUBLIC "-//W3C//DTD SVG 1.1//EN" "http://www.w3.org/Graphics/SVG/1.1/DTD/svg11.dtd"><svg t="1765184680314" class="icon" viewBox="0 0 1024 1024" version="1.1" xmlns="http://www.w3.org/2000/svg" p-id="35527" xmlns:xlink="http://www.w3.org/1999/xlink" width="200" height="200"><path d="M615.424 15.36c-20.48 6.656-27.648 27.648-20.48 48.128 58.368 148.48-3.584 265.728-79.36 382.976-27.648-13.824-58.368-24.064-86.016-37.888l96.768-27.648c13.824 0 17.408-3.584 20.48-6.656 10.24-10.24 13.824-20.48 10.24-37.888-6.656-20.48-24.064-31.232-45.056-24.064l-165.376 48.128c-17.408-10.24-27.648-20.48-41.472-34.304l275.968-82.944c6.656 0 10.24-3.584 17.408-10.24 10.24-10.24 13.824-20.48 10.24-37.888-6.656-20.48-24.064-31.232-45.056-24.064L260.096 260.096c-13.824-27.648-24.064-51.712-34.304-82.944-6.656-20.48-24.064-31.232-41.472-27.648-20.48 6.656-31.232 24.064-27.648 41.472 41.472 186.368 179.2 262.144 320.512 320.512-79.36 127.488-148.48 265.728-75.776 441.344 6.656 20.48 27.648 27.648 48.128 20.48 3.584-3.584 10.24-3.584 13.824-6.656 10.24-10.24 13.824-27.648 6.656-41.472-58.368-148.48 3.584-265.728 79.36-382.976 45.056 17.408 89.6 41.472 131.072 61.952l-99.84 31.232c-20.48 6.656-31.232 24.064-24.064 45.056 6.656 20.48 24.064 31.232 45.056 24.064l155.136-45.056 24.064 24.064L508.416 762.88c-20.48 6.656-31.232 24.064-24.064 45.056 6.656 20.48 24.064 31.232 45.056 24.064l292.864-86.016c10.24 17.408 17.408 37.888 24.064 65.536 6.656 20.48 24.064 31.232 41.472 27.648 6.656 0 13.824-6.656 17.408-10.24 10.24-10.24 13.824-20.48 6.656-34.304-45.056-182.784-179.2-254.976-324.096-317.44 79.36-127.488 148.48-265.728 75.776-441.344-10.24-16.896-30.72-23.552-48.128-20.48z" fill="#2c7d30" p-id="35528"></path></svg>