<?xml version="1.0" standalone="no"?><!DOCTYPE svg PUBLIC "-//W3C//DTD SVG 1.1//EN" "http://www.w3.org/Graphics/SVG/1.1/DTD/svg11.dtd"><svg t="1765183780453" class="icon" viewBox="0 0 1024 1024" version="1.1" xmlns="http://www.w3.org/2000/svg" p-id="22627" data-spm-anchor-id="a313x.search_index.0.i33.25f03a81mLfwJi" xmlns:xlink="http://www.w3.org/1999/xlink" width="200" height="200"><path d="M724 821H278.9c-31.1 0-56.2-25.2-56.2-56.2V319.7c0-31.1 25.2-56.2 56.2-56.2H724c31.1 0 56.2 25.2 56.2 56.2v445.1c0 31-25.2 56.2-56.2 56.2z" fill="#ffffff" p-id="22628" data-spm-anchor-id="a313x.search_index.0.i31.25f03a81mLfwJi" class="selected"></path><path d="M819 963.5H182c-58.7 0-106.5-47.8-106.5-106.5V220c0-58.7 47.7-106.4 106.4-106.5l145.7-0.9 95.6-0.1c13.8 0 25 11.2 25 25s-11.2 25-25 25l-95.5 0.1-145.7 0.9c-31.1 0-56.5 25.3-56.5 56.5v637c0 31.1 25.3 56.5 56.5 56.5h637c31.1 0 56.5-25.3 56.5-56.5V473c0-13.8 11.2-25 25-25s25 11.2 25 25v384c0 58.8-47.8 106.5-106.5 106.5z" p-id="22629" data-spm-anchor-id="a313x.search_index.0.i30.25f03a81mLfwJi" class="" fill="#2c7d30"></path><path d="M942.6 169.7l-18.8-20.5c-4.5-4.9-12.1-5.2-17-0.7l-56.5 51.9-163.9-114c-19.2-13.3-41.4-20.5-62.5-20.2-23.9 0.3-44.4 10.4-56.4 27.7s-14.3 40-6.3 62.5c3.1 8.7 7.6 17 13.2 24.8L293.5 585.4c-5.3 6.5-10.4 13.3-15.1 20.2-4.8 6.9-9.4 14-13.6 21.2l-1.5 2.1c-1.6 2.3-3 4.8-4 7.5-23.6 42.9-36.3 88.6-36 129 0.4 45.5 17.1 82.1 47.2 103 17.4 12.1 38.1 18.2 60.8 18.2 16.5 0 34-3.2 52-9.7 37.8-13.7 76.1-41.4 108-78.1 2.4-2 4.5-4.4 6.3-7l2.5-3.6c4.9-6.1 9.6-12.4 14-18.7 4.4-6.3 8.7-12.9 12.7-19.6L807.4 346c11.2 4 22.8 6.2 34 6.2h1.3c23.9-0.3 44.4-10.4 56.4-27.7 12-17.2 14.3-40 6.3-62.5-3.5-9.7-8.7-19.1-15.4-27.7l51.8-47.6c4.9-4.5 5.3-12.1 0.8-17zM485.2 721.9l-0.5 0.7-0.4 0.7c-3.6 6-7.4 11.9-11.3 17.5-3.9 5.6-8.1 11.2-12.5 16.7l-0.5 0.7-2.1 3-0.8 0.5-2.2 2.6c-26.7 31.2-58.2 54.5-88.7 65.5-27 9.8-50.9 8.9-67.3-2.5s-25.5-33.5-25.8-62.3c-0.2-20.1 4-42.1 11.8-64.5-1.1 16.1 3.2 31 13.5 42.1 24.6 26.8 74.2 21.3 110.8-12.3 27.3-25.1 39.6-58.8 33.8-85.4l264.7-243.2-222.5 320.2z m-77.1-115.1c-26-8-60.6 1.4-88 26.5l-0.3 0.3c4.2-5.9 8.6-11.8 13.1-17.4l0.6-0.7 274.8-395.3 125.6 87.3-325.8 299.3z m368.3-338.4L630.5 166.9c-10.5-7.3-18.6-17.2-22.2-27.2-1.2-3.4-3.6-11.8 0.2-17.2 2.8-4 8.8-6.2 16.4-6.2 9.6 0 21.7 3.5 32.9 11.3l154.8 107.6-36.2 33.2z m81.7 27.5c-5.1 7.3-20.7 8.6-37 1.7l31.9-29.3c2.3 3.4 4.1 6.9 5.3 10.4 1.3 3.4 3.6 11.8-0.2 17.2z" p-id="22630" data-spm-anchor-id="a313x.search_index.0.i27.25f03a81mLfwJi" class="" fill="#2c7d30"></path></svg>