<?xml version="1.0" standalone="no"?><!DOCTYPE svg PUBLIC "-//W3C//DTD SVG 1.1//EN" "http://www.w3.org/Graphics/SVG/1.1/DTD/svg11.dtd"><svg t="1765183152883" class="icon" viewBox="0 0 1024 1024" version="1.1" xmlns="http://www.w3.org/2000/svg" p-id="5260" xmlns:xlink="http://www.w3.org/1999/xlink" width="200" height="200"><path d="M337.706667 99.2a446.506667 446.506667 0 0 0-142.506667 96l45.226667 45.226667A384 384 0 0 1 362.666667 158.08a386.986667 386.986667 0 0 1 298.666666 0 384 384 0 0 1 122.026667 82.346667l45.226667-45.226667a446.72 446.72 0 0 0-142.293334-96 451.2 451.2 0 0 0-348.586666 0zM661.333333 865.92a384 384 0 0 1-420.906666-82.346667l-45.226667 45.226667a448 448 0 0 0 633.6 0l-45.226667-45.226667A384 384 0 0 1 661.333333 865.92zM924.8 337.706667L865.92 362.666667a385.28 385.28 0 0 1 0 298.666666l58.88 24.96a449.493333 449.493333 0 0 0 0-348.8zM99.2 337.706667a449.493333 449.493333 0 0 0 0 348.8L158.08 661.333333a385.28 385.28 0 0 1 0-298.666666z" p-id="5261" fill="#2E7D32"></path><path d="M539.946667 215.253333L512 192l-27.093333 25.6a192 192 0 0 0-62.72 145.066667 170.666667 170.666667 0 0 0 62.293333 126.506666L512 512l27.093333-25.6a192 192 0 0 0 63.146667-145.066667 170.666667 170.666667 0 0 0-62.293333-126.08zM603.733333 628.266667s42.666667 2.773333 45.44 2.773333a159.36 159.36 0 0 0 114.133334-46.293333 162.56 162.56 0 0 0 45.653333-126.506667l-2.133333-32.64-33.706667-2.133333a158.506667 158.506667 0 0 0-170.666667 172.373333zM250.88 423.253333l-33.706667 2.133334-2.133333 32.853333a161.28 161.28 0 0 0 45.44 126.506667 159.573333 159.573333 0 0 0 114.346667 46.293333c4.053333 0 45.44-2.773333 45.44-2.773333l2.133333-32.64a158.293333 158.293333 0 0 0-170.666667-172.16zM480 576h64v256h-64z" p-id="5262" fill="#2E7D32"></path></svg>