<?xml version="1.0" standalone="no"?><!DOCTYPE svg PUBLIC "-//W3C//DTD SVG 1.1//EN" "http://www.w3.org/Graphics/SVG/1.1/DTD/svg11.dtd"><svg t="1765184754870" class="icon" viewBox="0 0 1024 1024" version="1.1" xmlns="http://www.w3.org/2000/svg" p-id="36695" xmlns:xlink="http://www.w3.org/1999/xlink" width="200" height="200"><path d="M544 32C334.4 32 150.4 172.8 88 368l-32-56-56 32 56 97.6 32 56L144 464l97.6-56L208 352l-59.2 33.6C203.2 217.6 361.6 96 544 96c228.8 0 416 187.2 416 416 0 217.6-169.6 398.4-384 414.4v-192h43.2c116.8 0 212.8-96 212.8-212.8v-107.2h-107.2c-76.8 0-144 40-180.8 100.8-38.4-60.8-104-100.8-180.8-100.8H256v107.2c0 116.8 96 212.8 212.8 212.8H512v256c11.2 0 22.4 1.6 32 1.6 262.4 0 476.8-212.8 480-473.6v-11.2C1020.8 244.8 806.4 32 544 32z m32 595.2c0-81.6 67.2-148.8 148.8-148.8H768v43.2c0 81.6-67.2 148.8-148.8 148.8H576v-43.2z m-107.2 43.2c-81.6 0-148.8-67.2-148.8-148.8v-43.2h43.2c81.6 0 148.8 67.2 148.8 148.8v43.2h-43.2z" p-id="36696" fill="#2c7d30"></path></svg>