<?xml version="1.0" standalone="no"?><!DOCTYPE svg PUBLIC "-//W3C//DTD SVG 1.1//EN" "http://www.w3.org/Graphics/SVG/1.1/DTD/svg11.dtd"><svg t="1765183571499" class="icon" viewBox="0 0 1024 1024" version="1.1" xmlns="http://www.w3.org/2000/svg" p-id="17215" xmlns:xlink="http://www.w3.org/1999/xlink" width="200" height="200"><path d="M959.146667 715.093333l-4.266667-7.253333a116.992 116.992 0 0 0-147.626667-49.066667l-110.933333 29.013334c-2.56-31.146667-23.04-57.173333-54.613333-66.56-28.16-7.253333-66.133333-17.493333-98.133334-26.026667v-136.533333h106.666667c170.666667 0 309.333333-138.666667 309.333333-309.333334 0-29.44-23.893333-53.333333-53.333333-53.333333h-117.333333c-121.6 0-226.986667 70.826667-277.333334 173.226667-50.346667-102.4-155.733333-173.226667-277.333333-173.226667H117.333333c-29.44 0-53.333333 23.893333-53.333333 53.333333 0 170.666667 138.666667 309.333333 309.333333 309.333334h106.666667v122.453333c-12.373333-0.853333-25.173333 0-37.12 2.986667l-146.773333 36.693333c-8.533333-32-37.546667-55.466667-72.106667-55.466667h-85.333333c-40.96 0-74.666667 33.706667-74.666667 74.666667v213.333333c0 40.96 33.706667 74.666667 74.666667 74.666667h85.333333c26.026667 0 49.066667-13.653333 62.293333-33.706667l293.546667 86.186667c10.24 2.56 20.48 4.266667 30.72 4.266667 20.48 0 40.533333-5.12 58.026667-15.36 75.52-43.52 262.826667-151.893333 262.826666-151.893334 35.84-20.906667 47.786667-66.56 27.733334-101.546666z m-59.733334 46.506667s-187.306667 108.373333-262.826666 151.893333c-11.946667 6.826667-26.453333 8.533333-39.253334 5.12l-298.666666-87.466666v-144.64l160-40.106667c8.96-2.133333 18.773333-2.133333 27.733333 0l40.96 11.093333c32 8.533333 70.4 18.773333 98.133333 26.026667 5.973333 1.706667 8.533333 6.4 8.533334 12.8-2.133333 6.826667-5.12 13.226667-8.96 18.346667-12.8 17.493333-35.413333 25.6-56.746667 19.626666l-80.213333-21.333333a32 32 0 1 0-16.64 61.866667l80.213333 21.333333a117.674667 117.674667 0 0 0 116.053333-34.133333l159.146667-41.813334s3.413333-1.28 5.12-1.706666c24.746667-11.52 54.186667-2.133333 67.84 21.333333l4.266667 7.253333c2.986667 5.12 1.28 11.52-4.266667 14.506667z" p-id="17216" fill="#2d7d31"></path></svg>