<?xml version="1.0" standalone="no"?><!DOCTYPE svg PUBLIC "-//W3C//DTD SVG 1.1//EN" "http://www.w3.org/Graphics/SVG/1.1/DTD/svg11.dtd"><svg t="1765184616498" class="icon" viewBox="0 0 1024 1024" version="1.1" xmlns="http://www.w3.org/2000/svg" p-id="33942" xmlns:xlink="http://www.w3.org/1999/xlink" width="200" height="200"><path d="M540.46 545.42l238.05-30.61 91.44-218.59 138.91-19.91-9.06-63.38-139.46 19.98-141.86-186.1-270.25 34.63-89.96 215.13-198.31 25.41-92.57-126.17-51.62 37.88 91.42 124.59-92.05 220.16 143.12 187.78-57.75 140.41L159.7 931l57.85-140.65 232.99-29.85 89.92-215.08z m-47.41-405.23l196.94-25.25 120.34 157.94-76.63 183.18-196.94 25.25-120.31-157.93 76.6-183.19zM208.8 727L88.45 569.06l76.59-183.25 196.97-25.25L482.33 518.5l-76.59 183.25L208.8 727z" fill="#2c7d30" p-id="33943"></path><path d="M145.384 566.971l25.37-19.504 99.373 129.258-25.37 19.504zM535.83 165.69l-66.06 149.06 29.25 13 66.06-149.06zM844.32 593.19h-64v160h-160v64h160v160h64v-160h160v-64h-160z" fill="#2c7d30" p-id="33944"></path></svg>